<svg enable-background="new 0 0 414.16 414.16" viewBox="0 0 414.16 414.16"
    xmlns="http://www.w3.org/2000/svg">
    <path
        d="m343.08 309.2v6.8c0 6.8-5.2 12-12 12h-240c-15.6 0-28 12.4-28 28s12.4 28 28 28h240c11.2 0 20-8.8 20-20v-48-6.8zm0 54.8c0 6.8-5.2 12-12 12h-240c-11.2 0-20-8.8-20-20s8.8-20 20-20h240c4.4 0 8.8-1.6 12-4z" />
    <path
        d="m335.08 0h-240c-17.6 0-32 14.4-32 32v320l8-1.2v-318.8c0-13.2 10.8-24 24-24h240c4.4 0 8 3.6 8 8v296h8v-296c0-8.8-7.2-16-16-16z" />
    <path d="m97.08 28c-1.2 0-2 1.6-2 4v8c0 2.4.8 4 2 4s2-1.6 2-4v-8c0-2.4-.8-4-2-4z" />
    <path d="m97.08 52c-1.2 0-2 1.6-2 4v8c0 2.4.8 4 2 4s2-1.6 2-4v-8c0-2.4-.8-4-2-4z" />
    <path d="m97.08 76c-1.2 0-2 1.6-2 4v8c0 2.4.8 4 2 4s2-1.6 2-4v-8c0-2.4-.8-4-2-4z" />
    <path d="m97.08 100c-1.2 0-2 1.6-2 4v8c0 2.4.8 4 2 4s2-1.6 2-4v-8c0-2.4-.8-4-2-4z" />
    <path d="m97.08 124c-1.2 0-2 1.6-2 4v8c0 2.4.8 4 2 4s2-1.6 2-4v-8c0-2.4-.8-4-2-4z" />
    <path d="m97.08 148c-1.2 0-2 1.6-2 4v8c0 2.4.8 4 2 4s2-1.6 2-4v-8c0-2.4-.8-4-2-4z" />
    <path d="m97.08 172c-1.2 0-2 1.6-2 4v8c0 2.4.8 4 2 4s2-1.6 2-4v-8c0-2.4-.8-4-2-4z" />
    <path d="m97.08 196c-1.2 0-2 1.6-2 4v8c0 2.4.8 4 2 4s2-1.6 2-4v-8c0-2.4-.8-4-2-4z" />
    <path d="m97.08 220c-1.2 0-2 1.6-2 4v8c0 2.4.8 4 2 4s2-1.6 2-4v-8c0-2.4-.8-4-2-4z" />
    <path d="m97.08 244c-1.2 0-2 1.6-2 4v8c0 2.4.8 4 2 4s2-1.6 2-4v-8c0-2.4-.8-4-2-4z" />
    <path d="m97.08 268c-1.2 0-2 1.6-2 4v8c0 2.4.8 4 2 4s2-1.6 2-4v-8c0-2.4-.8-4-2-4z" />
    <path d="m97.08 4c-1.2 0-2 1.6-2 4v8c0 2.4.8 4 2 4s2-1.6 2-4v-8c0-2.4-.8-4-2-4z" />
    <path d="m97.08 292c-1.2 0-2 1.6-2 4v8c0 2.4.8 4 2 4s2-1.6 2-4v-8c0-2.4-.8-4-2-4z" />
    <path
        d="m95.08 352v60c0 2.4 1.2 2.8 2.8 1.2l13.6-13.2 12.8 13.2c1.6 1.6 2.8 1.2 2.8-1.2v-60z" />
    <path
        d="m247.08 112h-24v-24c0-4.4-3.6-8-8-8h-16c-4.4 0-8 3.6-8 8v24 8l-3.6-4.8c-1.2-1.6-4-3.2-6.4-3.2h-14c-4.4 0-8 3.6-8 8v16c0 4.4 3.6 8 8 8h24v56c0 4.4 3.6 8 8 8h16c4.4 0 8-3.6 8-8v-64l3.6 4.8c1.2 1.6 4 3.2 6.4 3.2h14c4.4 0 8-3.6 8-8v-16c0-4.4-3.6-8-8-8z" />
    <path d="m231.08 352h-140c-2.4 0-4 .8-4 2s1.6 2 4 2h140c2.4 0 4-.8 4-2s-1.6-2-4-2z" />
    <path d="m271.08 352h-20c-2.4 0-4 .8-4 2s1.6 2 4 2h20c2.4 0 4-.8 4-2s-1.6-2-4-2z" />
    <path d="m291.08 352c-2.4 0-4 .8-4 2s1.6 2 4 2 4-.8 4-2-1.6-2-4-2z" />
    <path d="m97.08 316c-1.2 0-2 1.6-2 4v8c0 2.4.8 4 2 4s2-1.6 2-4v-8c0-2.4-.8-4-2-4z" />
</svg>