<svg enable-background="new 0 0 512 512" viewBox="0 0 512 512" xmlns="http://www.w3.org/2000/svg">
    <path
        d="m63.035 457.579c-8.479 0-15.352-6.874-15.352-15.352v-383.191c.001-32.553 26.484-59.036 59.037-59.036h281.069c32.553 0 59.036 26.483 59.036 59.036v255.671c0 8.477-6.873 15.352-15.352 15.352s-15.352-6.874-15.352-15.352v-255.671c0-15.623-12.71-28.333-28.333-28.333h-281.068c-15.623 0-28.333 12.71-28.333 28.333v383.191c0 8.479-6.875 15.352-15.352 15.352z"
        fill="#2d527c" />
    <path
        d="m327.047 148.967h-50.255v-45.055h-57.066v45.055h-50.255v57.067h50.255v102.002h57.066v-102.002h50.255z"
        fill="#cee8fa" />
    <path
        d="m276.792 323.387h-57.065c-8.479 0-15.352-6.874-15.352-15.352v-86.651h-34.903c-8.479 0-15.352-6.874-15.352-15.352v-57.066c0-8.477 6.873-15.352 15.352-15.352h34.903v-29.704c0-8.477 6.873-15.352 15.352-15.352h57.065c8.479 0 15.352 6.874 15.352 15.352v29.705h34.905c8.479 0 15.352 6.874 15.352 15.352v57.066c0 8.477-6.873 15.352-15.352 15.352h-34.905v86.651c0 8.478-6.873 15.351-15.352 15.351zm-41.715-30.703h26.362v-86.651c0-8.477 6.873-15.352 15.352-15.352h34.905v-26.363h-34.905c-8.479 0-15.352-6.874-15.352-15.352v-29.705h-26.362v29.705c0 8.477-6.873 15.352-15.352 15.352h-34.903v26.363h34.903c8.479 0 15.352 6.874 15.352 15.352z"
        fill="#2d527c" />
    <path
        d="m272.626 496.648h176.339c-25.838 0-46.786-20.947-46.786-46.786v-6.692c0-25.838 20.947-46.786 46.786-46.786h-335.799c-27.687 0-50.131 22.444-50.131 50.131 0 27.687 22.444 50.131 50.131 50.131h40.904 118.556z"
        fill="#cee8fa" />
    <g fill="#2d527c">
        <path
            d="m448.965 512h-335.799c-36.107 0-65.482-29.375-65.482-65.482s29.375-65.482 65.482-65.482h335.799c8.479 0 15.352 6.874 15.352 15.352 0 8.477-6.873 15.352-15.352 15.352-17.332 0-31.434 14.102-31.434 31.435v6.69c0 17.332 14.102 31.434 31.434 31.434 8.479 0 15.352 6.874 15.352 15.352-.001 8.476-6.873 15.349-15.352 15.349zm-335.799-100.263c-19.177 0-34.779 15.602-34.779 34.779s15.602 34.779 34.779 34.779h282.214c-5.433-9.226-8.552-19.974-8.552-31.434v-6.69c0-11.463 3.118-22.208 8.552-31.435h-282.214z" />
        <path
            d="m400.747 461.868h-133.536c-8.479 0-15.352-6.874-15.352-15.352 0-8.477 6.873-15.352 15.352-15.352h133.536c8.479 0 15.352 6.874 15.352 15.352 0 8.477-6.873 15.352-15.352 15.352z" />
    </g>
</svg>