<?xml version="1.0" encoding="iso-8859-1"?><!-- Generator: Adobe Illustrator 19.0.0, SVG Export Plug-In . SVG Version: 6.00 Build 0)  -->
<svg style="enable-background:new 0 0 414.16 414.16;" id="Layer_1" version="1.1"
	viewBox="0 0 414.16 414.16" x="0px" xmlns="http://www.w3.org/2000/svg" y="0px"
	xml:space="preserve">
<g>
	<g>
		<path d="M343.08,309.2v6.8c0,6.8-5.2,12-12,12h-240c-15.6,0-28,12.4-28,28c0,15.6,12.4,28,28,28h240c11.2,0,20-8.8,20-20v-48v-6.8
			H343.08z M343.08,364c0,6.8-5.2,12-12,12h-240c-11.2,0-20-8.8-20-20s8.8-20,20-20h240c4.4,0,8.8-1.6,12-4V364z" />
	</g>
</g>
	<g>
	<g>
		<path d="M335.08,0h-240c-17.6,0-32,14.4-32,32v320l8-1.2V32c0-13.2,10.8-24,24-24h240c4.4,0,8,3.6,8,8v296h8V16
			C351.08,7.2,343.88,0,335.08,0z" />
	</g>
</g>
	<g>
	<g>
		<path
			d="M97.08,28c-1.2,0-2,1.6-2,4v8c0,2.4,0.8,4,2,4s2-1.6,2-4v-8C99.08,29.6,98.28,28,97.08,28z" />
	</g>
</g>
	<g>
	<g>
		<path
			d="M97.08,52c-1.2,0-2,1.6-2,4v8c0,2.4,0.8,4,2,4s2-1.6,2-4v-8C99.08,53.6,98.28,52,97.08,52z" />
	</g>
</g>
	<g>
	<g>
		<path
			d="M97.08,76c-1.2,0-2,1.6-2,4v8c0,2.4,0.8,4,2,4s2-1.6,2-4v-8C99.08,77.6,98.28,76,97.08,76z" />
	</g>
</g>
	<g>
	<g>
		<path
			d="M97.08,100c-1.2,0-2,1.6-2,4v8c0,2.4,0.8,4,2,4s2-1.6,2-4v-8C99.08,101.6,98.28,100,97.08,100z" />
	</g>
</g>
	<g>
	<g>
		<path
			d="M97.08,124c-1.2,0-2,1.6-2,4v8c0,2.4,0.8,4,2,4s2-1.6,2-4v-8C99.08,125.6,98.28,124,97.08,124z" />
	</g>
</g>
	<g>
	<g>
		<path
			d="M97.08,148c-1.2,0-2,1.6-2,4v8c0,2.4,0.8,4,2,4s2-1.6,2-4v-8C99.08,149.6,98.28,148,97.08,148z" />
	</g>
</g>
	<g>
	<g>
		<path
			d="M97.08,172c-1.2,0-2,1.6-2,4v8c0,2.4,0.8,4,2,4s2-1.6,2-4v-8C99.08,173.6,98.28,172,97.08,172z" />
	</g>
</g>
	<g>
	<g>
		<path
			d="M97.08,196c-1.2,0-2,1.6-2,4v8c0,2.4,0.8,4,2,4s2-1.6,2-4v-8C99.08,197.6,98.28,196,97.08,196z" />
	</g>
</g>
	<g>
	<g>
		<path
			d="M97.08,220c-1.2,0-2,1.6-2,4v8c0,2.4,0.8,4,2,4s2-1.6,2-4v-8C99.08,221.6,98.28,220,97.08,220z" />
	</g>
</g>
	<g>
	<g>
		<path
			d="M97.08,244c-1.2,0-2,1.6-2,4v8c0,2.4,0.8,4,2,4s2-1.6,2-4v-8C99.08,245.6,98.28,244,97.08,244z" />
	</g>
</g>
	<g>
	<g>
		<path
			d="M97.08,268c-1.2,0-2,1.6-2,4v8c0,2.4,0.8,4,2,4s2-1.6,2-4v-8C99.08,269.6,98.28,268,97.08,268z" />
	</g>
</g>
	<g>
	<g>
		<path
			d="M97.08,4c-1.2,0-2,1.6-2,4v8c0,2.4,0.8,4,2,4s2-1.6,2-4V8C99.08,5.6,98.28,4,97.08,4z" />
	</g>
</g>
	<g>
	<g>
		<path
			d="M97.08,292c-1.2,0-2,1.6-2,4v8c0,2.4,0.8,4,2,4s2-1.6,2-4v-8C99.08,293.6,98.28,292,97.08,292z" />
	</g>
</g>
	<g>
	<g>
		<path
			d="M95.08,352v60c0,2.4,1.2,2.8,2.8,1.2l13.6-13.2l12.8,13.2c1.6,1.6,2.8,1.2,2.8-1.2v-60H95.08z" />
	</g>
</g>
	<g>
	<g>
		<path d="M247.08,112h-24V88c0-4.4-3.6-8-8-8h-16c-4.4,0-8,3.6-8,8v24v8l-3.6-4.8c-1.2-1.6-4-3.2-6.4-3.2h-14c-4.4,0-8,3.6-8,8v16
			c0,4.4,3.6,8,8,8h24v56c0,4.4,3.6,8,8,8h16c4.4,0,8-3.6,8-8v-64l3.6,4.8c1.2,1.6,4,3.2,6.4,3.2h14c4.4,0,8-3.6,8-8v-16
			C255.08,115.6,251.48,112,247.08,112z" />
	</g>
</g>
	<g>
	<g>
		<path
			d="M231.08,352h-140c-2.4,0-4,0.8-4,2s1.6,2,4,2h140c2.4,0,4-0.8,4-2S233.48,352,231.08,352z" />
	</g>
</g>
	<g>
	<g>
		<path
			d="M271.08,352h-20c-2.4,0-4,0.8-4,2s1.6,2,4,2h20c2.4,0,4-0.8,4-2S273.48,352,271.08,352z" />
	</g>
</g>
	<g>
	<g>
		<path d="M291.08,352c-2.4,0-4,0.8-4,2s1.6,2,4,2c2.4,0,4-0.8,4-2S293.48,352,291.08,352z" />
	</g>
</g>
	<g>
	<g>
		<path
			d="M97.08,316c-1.2,0-2,1.6-2,4v8c0,2.4,0.8,4,2,4s2-1.6,2-4v-8C99.08,317.6,98.28,316,97.08,316z" />
	</g>
</g>
	<g>
</g>
	<g>
</g>
	<g>
</g>
	<g>
</g>
	<g>
</g>
	<g>
</g>
	<g>
</g>
	<g>
</g>
	<g>
</g>
	<g>
</g>
	<g>
</g>
	<g>
</g>
	<g>
</g>
	<g>
</g>
	<g>
</g>
</svg>
