<?xml version="1.0" encoding="iso-8859-1"?><!-- Generator: Adobe Illustrator 19.0.0, SVG Export Plug-In . SVG Version: 6.00 Build 0)  -->
<svg style="enable-background:new 0 0 512 512;" id="Layer_1" version="1.1" viewBox="0 0 512 512"
	x="0px" xmlns="http://www.w3.org/2000/svg" y="0px" xml:space="preserve">
<path style="fill:#2D527C;" d="M63.035,457.579c-8.479,0-15.352-6.874-15.352-15.352V59.036C47.684,26.483,74.167,0,106.72,0
	h281.069c32.553,0,59.036,26.483,59.036,59.036v255.671c0,8.477-6.873,15.352-15.352,15.352s-15.352-6.874-15.352-15.352V59.036
	c0-15.623-12.71-28.333-28.333-28.333H106.72c-15.623,0-28.333,12.71-28.333,28.333v383.191
	C78.387,450.706,71.512,457.579,63.035,457.579z" />
	<polygon style="fill:#CEE8FA;" points="327.047,148.967 276.792,148.967 276.792,103.912 219.726,103.912 219.726,148.967
	169.471,148.967 169.471,206.034 219.726,206.034 219.726,308.036 276.792,308.036 276.792,206.034 327.047,206.034 " />
	<path style="fill:#2D527C;" d="M276.792,323.387h-57.065c-8.479,0-15.352-6.874-15.352-15.352v-86.651h-34.903
	c-8.479,0-15.352-6.874-15.352-15.352v-57.066c0-8.477,6.873-15.352,15.352-15.352h34.903V103.91
	c0-8.477,6.873-15.352,15.352-15.352h57.065c8.479,0,15.352,6.874,15.352,15.352v29.705h34.905c8.479,0,15.352,6.874,15.352,15.352
	v57.066c0,8.477-6.873,15.352-15.352,15.352h-34.905v86.651C292.144,316.514,285.271,323.387,276.792,323.387z M235.077,292.684
	h26.362v-86.651c0-8.477,6.873-15.352,15.352-15.352h34.905v-26.363h-34.905c-8.479,0-15.352-6.874-15.352-15.352v-29.705h-26.362
	v29.705c0,8.477-6.873,15.352-15.352,15.352h-34.903v26.363h34.903c8.479,0,15.352,6.874,15.352,15.352V292.684z" />
	<path style="fill:#CEE8FA;" d="M272.626,496.648h176.339c-25.838,0-46.786-20.947-46.786-46.786v-6.692
	c0-25.838,20.947-46.786,46.786-46.786H113.166c-27.687,0-50.131,22.444-50.131,50.131l0,0c0,27.687,22.444,50.131,50.131,50.131
	h40.904h118.556V496.648z" />
	<g>
	<path style="fill:#2D527C;" d="M448.965,512H113.166c-36.107,0-65.482-29.375-65.482-65.482s29.375-65.482,65.482-65.482h335.799
		c8.479,0,15.352,6.874,15.352,15.352c0,8.477-6.873,15.352-15.352,15.352c-17.332,0-31.434,14.102-31.434,31.435v6.69
		c0,17.332,14.102,31.434,31.434,31.434c8.479,0,15.352,6.874,15.352,15.352C464.316,505.127,457.444,512,448.965,512z
		 M113.166,411.737c-19.177,0-34.779,15.602-34.779,34.779c0,19.177,15.602,34.779,34.779,34.779H395.38
		c-5.433-9.226-8.552-19.974-8.552-31.434v-6.69c0-11.463,3.118-22.208,8.552-31.435H113.166V411.737z" />
		<path style="fill:#2D527C;" d="M400.747,461.868H267.211c-8.479,0-15.352-6.874-15.352-15.352c0-8.477,6.873-15.352,15.352-15.352
		h133.536c8.479,0,15.352,6.874,15.352,15.352C416.099,454.993,409.226,461.868,400.747,461.868z" />
</g>
	<g>
</g>
	<g>
</g>
	<g>
</g>
	<g>
</g>
	<g>
</g>
	<g>
</g>
	<g>
</g>
	<g>
</g>
	<g>
</g>
	<g>
</g>
	<g>
</g>
	<g>
</g>
	<g>
</g>
	<g>
</g>
	<g>
</g>
</svg>
