<?xml version="1.0" encoding="UTF-8"?>
<svg xmlns:xlink="http://www.w3.org/1999/xlink" viewBox="0 0 535.38629 504.7467"
    xmlns="http://www.w3.org/2000/svg">
    <defs>
        <filter id="aa">
            <feGaussianBlur stdDeviation=".57562" />
        </filter>
        <filter id="o">
            <feGaussianBlur stdDeviation="1.18976" />
        </filter>
        <filter height="1.2868" id="f" width="1.2445" x="-.12227" y="-.14341">
            <feGaussianBlur stdDeviation=".53502" />
        </filter>
        <filter height="1.21" id="a" width="1.0622" x="-.03111" y="-.10498">
            <feGaussianBlur stdDeviation=".41804" />
        </filter>
        <filter height="1.0475" id="r" width="1.2496" x="-.12479" y="-.02377">
            <feGaussianBlur stdDeviation=".41597" />
        </filter>
        <filter height="1.0637" id="q" width="1.3222" x="-.16112" y="-.03184">
            <feGaussianBlur stdDeviation=".55722" />
        </filter>
        <filter height="1.2624" id="p" width="1.0778" x="-.03889" y="-.13122">
            <feGaussianBlur stdDeviation=".52255" />
        </filter>
        <filter height="2.4588" id="z" width="1.0885" x="-.04426" y="-.72939">
            <feGaussianBlur stdDeviation="3.6327" />
        </filter>
        <filter height="2.4084" id="y" width="1.0854" x="-.04273" y="-.70418">
            <feGaussianBlur stdDeviation="3.50712" />
        </filter>
        <linearGradient id="n">
            <stop offset="0" stop-color="#402110" />
            <stop offset="1" stop-color="#b06d46" stop-opacity="0" />
        </linearGradient>
        <linearGradient id="b">
            <stop offset="0" stop-color="#7a532b" />
            <stop offset="1" stop-color="#7a532b" stop-opacity="0" />
        </linearGradient>
        <linearGradient id="e">
            <stop offset="0" stop-color="#3e1f0a" />
            <stop offset="1" stop-color="#b06d46" stop-opacity="0" />
        </linearGradient>
        <linearGradient gradientUnits="userSpaceOnUse" id="j" x1="285.58" x2="285.58" y1="191.16"
            y2="195.31">
            <stop offset="0" stop-color="#825631" />
            <stop offset="1" stop-color="#825631" stop-opacity="0" />
        </linearGradient>
        <linearGradient gradientUnits="userSpaceOnUse" id="m" x1="267.44" x2="266.42"
            xlink:href="#b" />
        <linearGradient gradientUnits="userSpaceOnUse" id="x" x1="282.3" x2="281.29"
            xlink:href="#b" />
        <linearGradient gradientUnits="userSpaceOnUse" id="w" x1="284.69" x2="282.98"
            xlink:href="#b" />
        <linearGradient gradientUnits="userSpaceOnUse" id="l" x1="493.91" x2="494.92"
            xlink:href="#b" />
        <linearGradient gradientUnits="userSpaceOnUse" id="k" x1="479.04" x2="480.06"
            xlink:href="#b" />
        <radialGradient cx="171" cy="129.75"
            gradientTransform="matrix(2.381 2.3416e-7 -1.05e-6 6.4419 -236.15 -706.07)"
            gradientUnits="userSpaceOnUse" id="i" r="4">
            <stop offset="0" stop-color="#3b280f" />
            <stop offset="1" stop-color="#7a532b" stop-opacity="0" />
        </radialGradient>
        <radialGradient cx="128.17" cy="111.88" gradientUnits="userSpaceOnUse" id="d" r="5.2089">
            <stop offset="0" stop-color="#fff" />
            <stop offset="1" stop-color="#fff" stop-opacity="0" />
        </radialGradient>
        <radialGradient cx="128.17" cy="111.88" gradientUnits="userSpaceOnUse" id="c" r="5.2089">
            <stop offset="0" stop-color="#ebebeb" stop-opacity=".37255" />
            <stop offset="1" stop-color="#fff" stop-opacity="0" />
        </radialGradient>
        <radialGradient cx="251.32" cy="168.54"
            gradientTransform="matrix(1.2546 -.053072 .03235 .76477 -69.447 52.983)"
            gradientUnits="userSpaceOnUse" id="v" r="16.124" xlink:href="#e" />
        <radialGradient cx="230.13" cy="167.78"
            gradientTransform="matrix(2.1024 3.4972e-8 -2.9988e-8 1.3729 -253.71 -62.569)"
            gradientUnits="userSpaceOnUse" id="h" r="5.0935" xlink:href="#n" />
        <radialGradient cx="256.91" cy="167.88"
            gradientTransform="matrix(1.2152 9.0652e-7 -4.29e-7 .54609 -39.204 76.207)"
            gradientUnits="userSpaceOnUse" id="g" r="16.124" xlink:href="#e" />
        <radialGradient cx="251.32" cy="168.54"
            gradientTransform="matrix(1.2546 -.053072 .03235 .76477 -69.447 330.91)"
            gradientUnits="userSpaceOnUse" id="u" r="16.124" xlink:href="#e" />
        <radialGradient cx="230.13" cy="167.78"
            gradientTransform="matrix(2.1024 3.4972e-8 -2.9988e-8 1.3729 -253.71 215.36)"
            gradientUnits="userSpaceOnUse" id="t" r="5.0935" xlink:href="#n" />
        <radialGradient cx="256.91" cy="167.88"
            gradientTransform="matrix(1.2152 9.0652e-7 -4.29e-7 .54609 -39.204 354.13)"
            gradientUnits="userSpaceOnUse" id="s" r="16.124" xlink:href="#e" />
    </defs>
    <g transform="matrix(.47593 0 0 .47593 62.341 70.697)">
        <path
            d="m478.09 152.78c1 0 1 10 1 15 0 9-2 15-4 15-15-1-170 1-190 0-2 0-3-9-3-15 0-10 3-17 6-17 1.692 0 180 2 190 2z"
            fill="#e2cd9e" filter="url(#aa)" stroke="#583c1f" stroke-linecap="round"
            stroke-linejoin="round" stroke-width=".47895"
            transform="matrix(1.141 0 0 .99988 -39.766 .035445)" />
        <path
            d="m479.98 429.78c1 0 1 10 1 15 0 9-1.585 16-3.585 16-15-1-170 1-190 0-2 0-3-9-3-15 0-10 3-17 6-17 1.692 0 179.58 1 189.58 1z"
            fill="#e3cd9d" filter="url(#o)" stroke="#583c1f" stroke-linecap="round"
            stroke-linejoin="round" stroke-width=".47895"
            transform="matrix(1.141 0 0 .99988 -39.766 .035445)" />
        <path
            d="m292.19 182.78h183c-2 50-4.4402 90.745-3.4402 140.74-0.23982 0.48925-3.8419-0.8894-5.4343-0.46282-1.1109 0.29759-2.0262 4.1467-2.5082 4.0497-6.536-1.3145-4.0155 0.28166-2.5116 2.7064 0.79855 1.2875 0.2762 2.3892 1.4939 3.2512 1.6109 1.9551-1.4736 2.0027-2.2104 3.0041-2.8123 2.9899 4.4997 2.1648 4.842 3.2472 0.75217-0.06008-0.6314 2.2358 0.04468 3.0671 0.60745 0.74693 2.5144-0.91232 3.6505-0.71287 1.3923 0.24443 2.0688 2.1758 3.2202 1.1401 1 32-1.1467 53.965 0.85327 86.965l-184-1c0.93307-6.0226 1.0336-12.202 2.4253-18.187 0.22191-0.95422 0.57468 0.18656 1.5747-1.8134 0.89443-1.7888 1.0977-2.3524 1.8437-2.0367 0.3422 0.14484 1.1049 4.6879 1.4876 4.6939 0.52562 0.00818 0.67637-4.5751 1.1488-4.7565 0.43122-0.16554 1.5752 1.4924 2.3671 1.2922 0.47472-0.12002 1.6612-1.5538 1.9203-2.1346 0.27934-0.62631 1.4753-0.69773 1.413-0.87942-0.19314-0.56407 0.20744-4.452-0.27243-5.1264-0.39567-0.55612-3.077 3.5616-3.1761 3.1214-0.04558-0.20252 0.61785-2.3178-0.18818-2.408-0.53142-0.05949-1.4246-3.0064-2.524-2.613-0.43449 0.15544-0.84504 3.7782-1.2017 3.851-1.0554 0.21557 0.70462-1.3135 0.22991-1.6135-0.3121-0.19721-3.048 0.94909-3.048 0.60968 0-1-0.37807-2.0972-0.32728-2.6784 4.6111-52.761 1.7801-106.73 0.20695-174.3-0.00117-0.0503 1.1138 0.53946 1.3265-0.17891 0.32641-1.1024 0.35278-1.6946 0.84911-1.329 0.65519 0.48254 0.52474 0.83385 0.9282 0.68055 0.78557-0.29849 0.00821-3.4693 0.75836-3.4741 0.82428-0.00522 0.84984 1.2527 1.3966 1.0118 0.54046-0.23807 0.27671-2.0771 0.27182-2.2935-0.00653-0.28881-0.98249-0.452-1.2487-1.2965-0.15358-0.48719 0.58666-1.7376 0.19333-1.9893-0.28757-0.18402-1.6657 1.2291-1.9358 1.0217-0.23493-0.18045 0.37136-1.5233 0.10937-1.6283-0.44878-0.1799-1.3897-0.50997-1.564 0.97822-0.09601 0.81984-1.4326 0.07415-1.4379-0.17037-0.22815-10.515-0.41486-21.293-0.52662-32.357z"
            fill="#e3cd9d" filter="url(#o)" stroke="#583c1f" stroke-linecap="round"
            stroke-linejoin="round" stroke-width=".625"
            transform="matrix(1.141 0 0 .99988 -39.766 .035445)" />
        <path
            d="m261.12 171.76c-6 4-5-1-25.919-0.73912-1.002 1.5172-2.6874 2.5137-4.5965 2.5137-3.0707 0-5.5629-2.5781-5.5629-5.7547s2.4922-5.7547 5.5629-5.7547c1.9267 0 3.6256 1.0149 4.6241 2.5558 20.891 0.179 19.891-4.821 25.891-0.821 1 1 4 1 6.3276 0.77883 2.1e-4 0.8992 4.2e-4 5.5076 6.2e-4 6.4068-2.3282-0.18559-5.3282-0.18559-6.3282 0.81441z"
            fill="#b06d46" />
        <path d="m175 129.75a4 21 0 1 1 -8 0 4 21 0 1 1 8 0z" fill="#b06d46"
            transform="translate(100.4 38.031)" />
        <path d="m175 129.75a4 21 0 1 1 -8 0 4 21 0 1 1 8 0z" fill="url(#i)" filter="url(#r)"
            transform="matrix(.69124 0 0 .92329 154.33 47.983)" />
        <path d="m282.26 171.21v-6.8736h-9.4112c-0.78068 2.4368-0.78068 4.4368 0 6.8736h9.4112z"
            fill="#b06d46" />
        <path
            d="m261.12 171.76c-6 4-5-1-25.919-0.73912 8.9509-3.9766 30.56 6.676 25.919-7.2609 1 1 4 1 6.3276 0.77883 2.1e-4 0.8992 4.2e-4 5.5076 6.2e-4 6.4068-2.3282-0.18559-5.3282-0.18559-6.3282 0.81441z"
            fill="url(#v)" filter="url(#a)" />
        <path d="m267.44 164.55h-1.0153v6.3808h1.0153c-0.12183-2.088-0.16244-4.2279 0-6.3808z"
            fill="url(#m)" />
        <path
            d="m230.6 173.53c-3.0707 0-5.5629-2.5781-5.5629-5.7547 1.7466 4.4336 10.401 4.1076 10.187-3.1988 0.19139 4.3832 1.7909 7.3112-4.6241 8.9535z"
            fill="url(#h)" filter="url(#f)" />
        <path d="m133.38 111.88a5.2089 5.2089 0 1 1 -10.418 0 5.2089 5.2089 0 1 1 10.418 0z"
            fill="url(#d)" opacity=".23221" transform="matrix(.61972 0 0 .61972 178.07 97.598)" />
        <path d="m133.38 111.88a5.2089 5.2089 0 1 1 -10.418 0 5.2089 5.2089 0 1 1 10.418 0z"
            fill="url(#c)" opacity=".71161" transform="matrix(.73239 0 0 .73239 136.44 84.516)" />
        <path
            d="m271.89 171.24c8.2906-1.3355 8.9172-3.3016 8.7517-6.5272 1 1-0.84205 0.19299 1.4856-0.02818 2.1e-4 0.8992 4.2e-4 5.5076 6.2e-4 6.4068-7.0119-0.11949-2.2759-0.0791-10.238 0.14866z"
            fill="url(#g)" filter="url(#a)" />
        <path d="m282.3 164.33h-1.0153v6.821h1.0153c-0.12183-2.2321-0.16244-4.5196 0-6.821z"
            fill="url(#x)" />
        <path
            d="m261.12 449.68c-6 4-5-1-25.919-0.73912-1.002 1.5172-2.6874 2.5137-4.5965 2.5137-3.0707 0-5.5629-2.5781-5.5629-5.7547s2.4922-5.7547 5.5629-5.7547c1.9267 0 3.6256 1.0149 4.6241 2.5558 20.891 0.179 19.891-4.821 25.891-0.821 1 1 4 1 6.3276 0.77883 2.1e-4 0.8992 4.2e-4 5.5076 6.2e-4 6.4068-2.3282-0.18559-5.3282-0.18559-6.3282 0.81441z"
            fill="#b06d46" />
        <path d="m175 129.75a4 21 0 1 1 -8 0 4 21 0 1 1 8 0z" fill="#b06d46"
            transform="translate(100.4 315.96)" />
        <path d="m175 129.75a4 21 0 1 1 -8 0 4 21 0 1 1 8 0z" fill="url(#i)" filter="url(#r)"
            transform="matrix(.69124 0 0 .92329 154.33 325.91)" />
        <path
            d="m261.12 449.68c-6 4-5-1-25.919-0.73912 8.9509-3.9766 30.56 6.676 25.919-7.2609 1 1 4 1 6.3276 0.77883 2.1e-4 0.8992 4.2e-4 5.5076 6.2e-4 6.4068-2.3282-0.18559-5.3282-0.18559-6.3282 0.81441z"
            fill="url(#u)" filter="url(#a)" />
        <path d="m267.44 442.47h-1.0153v6.3808h1.0153c-0.12183-2.088-0.16244-4.2279 0-6.3808z"
            fill="url(#m)" />
        <path
            d="m230.6 451.46c-3.0707 0-5.5629-2.5781-5.5629-5.7547 1.7466 4.4336 10.401 4.1076 10.187-3.1988 0.19139 4.3832 1.7909 7.3112-4.6241 8.9535z"
            fill="url(#t)" filter="url(#f)" />
        <path d="m133.38 111.88a5.2089 5.2089 0 1 1 -10.418 0 5.2089 5.2089 0 1 1 10.418 0z"
            fill="url(#d)" opacity=".23221" transform="matrix(.61972 0 0 .61972 178.07 375.52)" />
        <path d="m133.38 111.88a5.2089 5.2089 0 1 1 -10.418 0 5.2089 5.2089 0 1 1 10.418 0z"
            fill="url(#c)" opacity=".71161" transform="matrix(.73239 0 0 .73239 136.44 362.44)" />
        <g transform="matrix(1.2202 0 0 1 -59.874 0)">
            <path d="m282.26 449.14v-6.8736h-9.4112c-0.78068 2.4368-0.78068 4.4368 0 6.8736h9.4112z"
                fill="#b06d46" />
            <path
                d="m271.89 449.16c8.2906-1.3355 8.9172-3.3016 8.7517-6.5272 1 1-0.84205 0.19299 1.4856-0.02818 2.1e-4 0.8992 4.2e-4 5.5076 6.2e-4 6.4068-7.0119-0.11949-2.2759-0.0791-10.238 0.14866z"
                fill="url(#s)" filter="url(#a)" />
        </g>
        <path d="m284.69 442.25h-1.7156v6.821h1.7156c-0.20587-2.2321-0.27449-4.5196 0-6.821z"
            fill="url(#w)" />
        <g transform="translate(28)">
            <path
                d="m500.23 171.76c6 4 5-1 25.919-0.73912 1.002 1.5172 2.6874 2.5137 4.5965 2.5137 3.0707 0 5.5629-2.5781 5.5629-5.7547s-2.4922-5.7547-5.5629-5.7547c-1.9267 0-3.6256 1.0149-4.6241 2.5558-20.891 0.179-19.891-4.821-25.891-0.821-1 1-4 1-6.3276 0.77883-2.1e-4 0.8992-4.2e-4 5.5076-6.2e-4 6.4068 2.3282-0.18559 5.3282-0.18559 6.3282 0.81441z"
                fill="#b06d46" />
            <path d="m175 129.75a4 21 0 1 1 -8 0 4 21 0 1 1 8 0z" fill="#b06d46"
                transform="matrix(-1 0 0 1 660.95 38.031)" />
            <path
                d="m175.3 129.69c0 11.592-2.0922 21.056-4.3002 21.056s-4-9.408-4-21 1.792-21 4-21 4.3002 9.3518 4.3002 20.944z"
                fill="#4a2d07" filter="url(#q)"
                transform="matrix(-.69124 0 0 .92329 607.33 47.983)" />
            <path d="m479.09 171.21v-6.8736h9.4112c0.78068 2.4368 0.78068 4.4368 0 6.8736h-9.4112z"
                fill="#b06d46" />
            <path
                d="m261.12 171.76c-6 4-5-1-25.919-0.73912 8.9509-3.9766 30.56 6.676 25.919-7.2609 1 1 4 1 6.3276 0.77883 2.1e-4 0.8992 4.2e-4 5.5076 6.2e-4 6.4068-2.3282-0.18559-5.3282-0.18559-6.3282 0.81441z"
                fill="#4a2d07" filter="url(#p)" opacity=".75"
                transform="matrix(-.93486 0 0 .93486 744.03 11.185)" />
            <path d="m493.91 164.55h1.0153v6.3808h-1.0153c0.12183-2.088 0.16244-4.2279 0-6.3808z"
                fill="url(#l)" />
            <path
                d="m230.6 173.53c-3.0707 0-5.5629-2.5781-5.5629-5.7547 1.7466 4.4336 10.401 4.1076 10.187-3.1988 0.19139 4.3832 1.7909 7.3112-4.6241 8.9535z"
                fill="url(#h)" filter="url(#f)" transform="matrix(-1 0 0 1 761.34 0)" />
            <path d="m133.38 111.88a5.2089 5.2089 0 1 1 -10.418 0 5.2089 5.2089 0 1 1 10.418 0z"
                fill="url(#d)" opacity=".23221"
                transform="matrix(-.61972 0 0 .61972 583.28 97.598)" />
            <path d="m133.38 111.88a5.2089 5.2089 0 1 1 -10.418 0 5.2089 5.2089 0 1 1 10.418 0z"
                fill="url(#c)" opacity=".71161"
                transform="matrix(-.73239 0 0 .73239 624.9 84.516)" />
            <path
                d="m271.89 171.24c8.2906-1.3355 8.9172-3.3016 8.7517-6.5272 1 1-0.84205 0.19299 1.4856-0.02818 2.1e-4 0.8992 4.2e-4 5.5076 6.2e-4 6.4068-7.0119-0.11949-2.2759-0.0791-10.238 0.14866z"
                fill="url(#g)" filter="url(#a)" transform="matrix(-1 0 0 1 761.34 0)" />
            <path d="m479.04 164.33h1.0153v6.821h-1.0153c0.12183-2.2321 0.16244-4.5196 0-6.821z"
                fill="url(#k)" />
            <path
                d="m500.23 449.68c6 4 5-1 25.919-0.73912 1.002 1.5172 2.6874 2.5137 4.5965 2.5137 3.0707 0 5.5629-2.5781 5.5629-5.7547s-2.4922-5.7547-5.5629-5.7547c-1.9267 0-3.6256 1.0149-4.6241 2.5558-20.891 0.179-19.891-4.821-25.891-0.821-1 1-4 1-6.3276 0.77883-2.1e-4 0.8992-4.2e-4 5.5076-6.2e-4 6.4068 2.3282-0.18559 5.3282-0.18559 6.3282 0.81441z"
                fill="#b06d46" />
            <path d="m175 129.75a4 21 0 1 1 -8 0 4 21 0 1 1 8 0z" fill="#b06d46"
                transform="matrix(-1 0 0 1 660.95 315.96)" />
            <path
                d="m175.3 129.69c0 11.592-2.0922 21.056-4.3002 21.056s-4-9.408-4-21 1.792-21 4-21 4.3002 9.3518 4.3002 20.944z"
                fill="#4a2d07" filter="url(#q)"
                transform="matrix(-.69124 0 0 .92329 607.33 325.91)" />
            <path
                d="m261.12 171.76c-6 4-5-1-25.919-0.73912 8.9509-3.9766 30.56 6.676 25.919-7.2609 1 1 4 1 6.3276 0.77883 2.1e-4 0.8992 4.2e-4 5.5076 6.2e-4 6.4068-2.3282-0.18559-5.3282-0.18559-6.3282 0.81441z"
                fill="#4a2d07" filter="url(#p)" opacity=".75"
                transform="matrix(-.93486 0 0 .93486 744.03 289.11)" />
            <path d="m493.91 442.47h1.0153v6.3808h-1.0153c0.12183-2.088 0.16244-4.2279 0-6.3808z"
                fill="url(#l)" />
            <path
                d="m230.6 173.53c-3.0707 0-5.5629-2.5781-5.5629-5.7547 1.7466 4.4336 10.401 4.1076 10.187-3.1988 0.19139 4.3832 1.7909 7.3112-4.6241 8.9535z"
                fill="url(#h)" filter="url(#f)" transform="matrix(-1 0 0 1 761.34 277.92)" />
            <path d="m133.38 111.88a5.2089 5.2089 0 1 1 -10.418 0 5.2089 5.2089 0 1 1 10.418 0z"
                fill="url(#d)" opacity=".23221"
                transform="matrix(-.61972 0 0 .61972 583.28 375.52)" />
            <path d="m133.38 111.88a5.2089 5.2089 0 1 1 -10.418 0 5.2089 5.2089 0 1 1 10.418 0z"
                fill="url(#c)" opacity=".71161"
                transform="matrix(-.73239 0 0 .73239 624.9 362.44)" />
            <g transform="matrix(.81068 0 0 1 92.661 0)">
                <path
                    d="m479.09 449.14v-6.8736h9.4112c0.78068 2.4368 0.78068 4.4368 0 6.8736h-9.4112z"
                    fill="#b06d46" />
                <path
                    d="m271.89 171.24c8.2906-1.3355 8.9172-3.3016 8.7517-6.5272 1 1-0.84205 0.19299 1.4856-0.02818 2.1e-4 0.8992 4.2e-4 5.5076 6.2e-4 6.4068-7.0119-0.11949-2.2759-0.0791-10.238 0.14866z"
                    fill="url(#g)" filter="url(#a)" transform="matrix(-1 0 0 1 761.34 277.92)" />
                <path d="m479.04 442.25h1.0153v6.821h-1.0153c0.12183-2.2321 0.16244-4.5196 0-6.821z"
                    fill="url(#k)" />
            </g>
        </g>
        <path
            d="m481.58 185.92c1 0 1 3.702 1 5.5529 0 3.3318-2 5.5529-4 5.5529-15-0.3702-170 0.37019-190 0-2 0-3-3.3318-3-5.5529 0-3.702 3-6.2933 6-6.2933 1.692 0 180 0.74039 190 0.74039z"
            fill="url(#j)" filter="url(#y)" transform="matrix(1.0545 0 0 2.08 -7.9509 -204.65)" />
        <path
            d="m481.58 185.92c1 0 1 3.702 1 5.5529 0 3.3318-2 5.5529-4 5.5529-15-0.3702-170 0.37019-190 0-2 0-3-3.3318-3-5.5529 0-3.702 3-6.2933 6-6.2933 1.692 0 180 0.74039 190 0.74039z"
            fill="url(#j)" filter="url(#z)" transform="matrix(1.0545 0 0 1.8836 -10.343 65.748)" />
    </g>
</svg>
