<svg height="240" viewBox="0 0 240 240" width="240" xmlns="http://www.w3.org/2000/svg">
    <clipPath id="a">
        <path d="m0 180h180v-180h-180z" />
    </clipPath>
    <g clip-path="url(#a)" transform="matrix(1.3333333 0 0 -1.3333333 0 240)">
        <path
            d="m0 0c.434-8.19-5.913-15.246-14.104-15.68l-129.202-6.84c-8.19-.433-15.245 5.913-15.679 14.103l-6.84 129.202c-.433 8.191 5.913 15.246 14.103 15.68l129.202 6.84c8.19.433 15.247-5.913 15.68-14.103z"
            fill="#231f20" transform="translate(176.2236 26.0576)" />
        <path
            d="m0 0c.434-8.19-5.913-15.246-14.104-15.68l-129.201-6.84c-8.191-.433-15.246 5.914-15.68 14.103l-6.84 129.203c-.433 8.19 5.913 15.245 14.103 15.679l129.202 6.84c8.19.433 15.247-5.913 15.68-14.103z"
            fill="#fff" transform="translate(169.6543 31.1572)" />
        <path
            d="m0 0c.434-8.19-5.913-15.246-14.104-15.68l-129.201-6.84c-8.191-.433-15.246 5.914-15.68 14.103l-6.84 129.203c-.433 8.19 5.913 15.245 14.103 15.679l129.202 6.84c8.19.433 15.247-5.913 15.68-14.103z"
            fill="none" stroke="#231f20" stroke-miterlimit="10" stroke-width="2.209"
            transform="translate(169.6543 31.1572)" />
        <path
            d="m0 0c-1.916.375-3.74.226-5.474-.446-1.733-.672-3.336-1.889-4.807-3.649-1.472-1.759-2.79-4.074-3.955-6.943-1.166-2.869-2.135-6.302-2.909-10.296-.779-4.019-1.159-7.522-1.142-10.51.017-2.989.387-5.508 1.108-7.56.721-2.051 1.763-3.655 3.131-4.808 1.366-1.155 3.02-1.922 4.96-2.301 1.915-.375 3.734-.22 5.458.468 1.724.686 3.321 1.909 4.794 3.669 1.471 1.76 2.788 4.068 3.951 6.926 1.162 2.857 2.131 6.283 2.905 10.278.77 3.97 1.146 7.449 1.128 10.438-.017 2.987-.38 5.506-1.089 7.555-.709 2.05-1.745 3.663-3.107 4.842-1.362 1.178-3.013 1.957-4.952 2.337m-10.413-51.424c-4.176.767-7.677 2.102-10.501 4.003-2.825 1.902-5.01 4.253-6.555 7.053s-2.483 6.012-2.811 9.635c-.329 3.624-.084 7.553.737 11.789.844 4.354 2.219 8.182 4.126 11.481 1.907 3.297 4.223 5.985 6.949 8.062 2.726 2.076 5.789 3.487 9.19 4.233 3.4.745 7.015.743 10.847-.007 4.214-.825 7.723-2.179 10.526-4.064 2.804-1.885 4.96-4.224 6.469-7.017s2.407-5.985 2.693-9.575c.285-3.59.018-7.502-.802-11.738-.705-3.634-1.779-6.901-3.224-9.803-1.444-2.901-3.188-5.389-5.23-7.462s-4.34-3.702-6.893-4.889c-2.554-1.186-5.294-1.893-8.22-2.118.375-1.397 1.037-2.595 1.987-3.593.95-.997 2.067-1.84 3.35-2.528 1.283-.689 2.66-1.245 4.131-1.671 1.471-.425 2.925-.778 4.361-1.059l.468-.092c.238-.047.584-.096 1.033-.146.45-.051.916-.086 1.397-.105s.933-.02 1.36-.004c.425.017.733.069.924.156l-1.769-9.132c-.176-.14-.509-.256-1-.348-.49-.092-1.06-.148-1.71-.17-.651-.023-1.363-.014-2.139.025-.775.039-1.534.133-2.276.277l-.144.028c-2.778.544-5.207 1.407-7.289 2.588-2.082 1.182-3.786 2.589-5.11 4.221-1.323 1.634-2.258 3.447-2.804 5.439-.546 1.993-.669 4.084-.368 6.272-.293.033-.578.07-.855.112-.278.042-.561.091-.848.147"
            fill="#231f20" transform="translate(44.3394 154.4048)" />
        <path
            d="m0 0c-1.916.375-3.74.226-5.474-.446-1.733-.672-3.336-1.889-4.807-3.649-1.472-1.759-2.79-4.074-3.955-6.943-1.166-2.869-2.135-6.302-2.909-10.296-.779-4.019-1.159-7.522-1.142-10.51.017-2.989.387-5.508 1.108-7.56.721-2.051 1.763-3.655 3.131-4.808 1.366-1.155 3.02-1.922 4.96-2.301 1.915-.375 3.734-.22 5.458.468 1.724.686 3.321 1.909 4.794 3.669 1.471 1.76 2.788 4.068 3.951 6.926 1.162 2.857 2.131 6.283 2.905 10.278.77 3.97 1.146 7.449 1.128 10.438-.017 2.987-.38 5.506-1.089 7.555-.709 2.05-1.745 3.663-3.107 4.842-1.362 1.178-3.013 1.957-4.952 2.337zm-10.413-51.424c-4.176.767-7.677 2.102-10.501 4.003-2.825 1.902-5.01 4.253-6.555 7.053s-2.483 6.012-2.811 9.635c-.329 3.624-.084 7.553.737 11.789.844 4.354 2.219 8.182 4.126 11.481 1.907 3.297 4.223 5.985 6.949 8.062 2.726 2.076 5.789 3.487 9.19 4.233 3.4.745 7.015.743 10.847-.007 4.214-.825 7.723-2.179 10.526-4.064 2.804-1.885 4.96-4.224 6.469-7.017s2.407-5.985 2.693-9.575c.285-3.59.018-7.502-.802-11.738-.705-3.634-1.779-6.901-3.224-9.803-1.444-2.901-3.188-5.389-5.23-7.462s-4.34-3.702-6.893-4.889c-2.554-1.186-5.294-1.893-8.22-2.118.375-1.397 1.037-2.595 1.987-3.593.95-.997 2.067-1.84 3.35-2.528 1.283-.689 2.66-1.245 4.131-1.671 1.471-.425 2.925-.778 4.361-1.059l.468-.092c.238-.047.584-.096 1.033-.146.45-.051.916-.086 1.397-.105s.933-.02 1.36-.004c.425.017.733.069.924.156l-1.769-9.132c-.176-.14-.509-.256-1-.348-.49-.092-1.06-.148-1.71-.17-.651-.023-1.363-.014-2.139.025-.775.039-1.534.133-2.276.277l-.144.028c-2.778.544-5.207 1.407-7.289 2.588-2.082 1.182-3.786 2.589-5.11 4.221-1.323 1.634-2.258 3.447-2.804 5.439-.546 1.993-.669 4.084-.368 6.272-.293.033-.578.07-.855.112-.278.042-.561.091-.848.147z"
            fill="none" stroke="#231f20" stroke-miterlimit="10" stroke-width="4.918"
            transform="translate(44.3394 154.4048)" />
        <path
            d="m0 0c-7.479-1.546-13.454-.829-17.924 2.151-4.472 2.981-7.517 8.433-9.139 16.358l-5.383 26.294-5.254.114-.988 4.827 22.975 4.75.988-4.827-5.901-2.383 5.648-27.591c.575-2.809 1.342-5.216 2.3-7.22.959-2.005 2.064-3.604 3.317-4.796 1.253-1.194 2.65-1.993 4.19-2.401 1.54-.408 3.171-.433 4.891-.077 2.198.454 3.99 1.281 5.376 2.482 1.384 1.199 2.425 2.66 3.119 4.38.693 1.72 1.068 3.657 1.127 5.809.057 2.151-.154 4.403-.636 6.757l-5.641 27.555-6.285-.136-.988 4.827 18.277 3.779.989-4.827-4.688-2.096 5.589-27.302c.796-3.89.961-7.342.494-10.354-.468-3.012-1.43-5.607-2.889-7.787-1.459-2.179-3.356-3.954-5.69-5.325-2.335-1.371-4.96-2.358-7.874-2.961"
            fill="#231f20" transform="translate(91.5801 72.1113)" />
        <path
            d="m0 0c-7.479-1.546-13.454-.829-17.924 2.151-4.472 2.981-7.517 8.433-9.139 16.358l-5.383 26.294-5.254.114-.988 4.827 22.975 4.75.988-4.827-5.901-2.383 5.648-27.591c.575-2.809 1.342-5.216 2.3-7.22.959-2.005 2.064-3.604 3.317-4.796 1.253-1.194 2.65-1.993 4.19-2.401 1.54-.408 3.171-.433 4.891-.077 2.198.454 3.99 1.281 5.376 2.482 1.384 1.199 2.425 2.66 3.119 4.38.693 1.72 1.068 3.657 1.127 5.809.057 2.151-.154 4.403-.636 6.757l-5.641 27.555-6.285-.136-.988 4.827 18.277 3.779.989-4.827-4.688-2.096 5.589-27.302c.796-3.89.961-7.342.494-10.354-.468-3.012-1.43-5.607-2.889-7.787-1.459-2.179-3.356-3.954-5.69-5.325-2.335-1.371-4.96-2.358-7.874-2.961z"
            fill="none" stroke="#231f20" stroke-miterlimit="10" stroke-width="4.918"
            transform="translate(91.5801 72.1113)" />
        <path
            d="m0 0 .668 4.993 6.519.158 5.815 43.443-6.231 1.992.653 4.884 24.189-3.27-.653-4.884-6.498-.271-5.816-43.443 6.202-1.952-.66-4.92z"
            fill="#231f20" transform="translate(96.8818 56.4229)" />
        <path
            d="m0 0 .668 4.993 6.519.158 5.815 43.443-6.231 1.992.653 4.884 24.189-3.27-.653-4.884-6.498-.271-5.816-43.443 6.202-1.952-.66-4.92z"
            fill="none" stroke="#231f20" stroke-miterlimit="10" stroke-width="4.918"
            transform="translate(96.8818 56.4229)" />
        <path
            d="m0 0-2.524 4.376 27.92 42.032 4.207 4.891-18.407-.955-4.207-10.15-6.33.918 1.792 15.078h38.385l1.977-4.413-27.262-42.069-4.61-4.633 21.773 1.544 4.427 11.253 6.22-1.25-1.976-16.622z"
            fill="#231f20" transform="translate(114.0459 27.6689)" />
        <path
            d="m0 0-2.524 4.376 27.92 42.032 4.207 4.891-18.407-.955-4.207-10.15-6.33.918 1.792 15.078h38.385l1.977-4.413-27.262-42.069-4.61-4.633 21.773 1.544 4.427 11.253 6.22-1.25-1.976-16.622z"
            fill="none" stroke="#231f20" stroke-miterlimit="10" stroke-width="4.918"
            transform="translate(114.0459 27.6689)" />
        <path
            d="m0 0c-1.916.375-3.74.226-5.474-.446-1.733-.672-3.336-1.889-4.807-3.649-1.472-1.759-2.79-4.074-3.955-6.943-1.166-2.869-2.135-6.302-2.909-10.296-.779-4.019-1.159-7.522-1.142-10.51.017-2.989.387-5.508 1.108-7.56.721-2.051 1.763-3.655 3.131-4.808 1.366-1.155 3.02-1.922 4.96-2.301 1.915-.375 3.734-.22 5.458.468 1.724.686 3.321 1.909 4.794 3.669 1.471 1.76 2.788 4.068 3.951 6.926 1.162 2.857 2.131 6.283 2.905 10.278.77 3.97 1.146 7.449 1.128 10.438-.017 2.987-.38 5.506-1.089 7.555-.709 2.05-1.745 3.663-3.107 4.842-1.362 1.178-3.013 1.957-4.952 2.337m-10.413-51.424c-4.176.767-7.677 2.102-10.501 4.003-2.825 1.902-5.01 4.253-6.555 7.053s-2.483 6.012-2.811 9.635c-.329 3.624-.084 7.553.737 11.789.844 4.354 2.219 8.182 4.126 11.481 1.907 3.297 4.223 5.985 6.949 8.062 2.726 2.076 5.789 3.487 9.19 4.233 3.4.745 7.015.743 10.847-.007 4.214-.825 7.723-2.179 10.526-4.064 2.804-1.885 4.96-4.224 6.469-7.017s2.407-5.985 2.693-9.575c.285-3.59.018-7.502-.802-11.738-.705-3.634-1.779-6.901-3.224-9.803-1.444-2.901-3.188-5.389-5.23-7.462s-4.34-3.702-6.893-4.889c-2.554-1.186-5.294-1.893-8.22-2.118.375-1.397 1.037-2.595 1.987-3.593.95-.997 2.067-1.84 3.35-2.528 1.283-.689 2.66-1.245 4.131-1.671 1.471-.425 2.925-.778 4.361-1.059l.468-.092c.238-.047.584-.096 1.033-.146.45-.051.916-.086 1.397-.105s.933-.02 1.36-.004c.425.017.733.069.924.156l-1.769-9.132c-.176-.14-.509-.256-1-.348-.49-.092-1.06-.148-1.71-.17-.651-.023-1.363-.014-2.139.025-.775.039-1.534.133-2.276.277l-.144.028c-2.778.544-5.207 1.407-7.289 2.588-2.082 1.182-3.786 2.589-5.11 4.221-1.323 1.634-2.258 3.447-2.804 5.439-.546 1.993-.669 4.084-.368 6.272-.293.033-.578.07-.855.112-.278.042-.561.091-.848.147"
            fill="#bf1e2d" transform="translate(44.3394 154.4048)" />
        <path
            d="m0 0c-1.916.375-3.74.226-5.474-.446-1.733-.672-3.336-1.889-4.807-3.649-1.472-1.759-2.79-4.074-3.955-6.943-1.166-2.869-2.135-6.302-2.909-10.296-.779-4.019-1.159-7.522-1.142-10.51.017-2.989.387-5.508 1.108-7.56.721-2.051 1.763-3.655 3.131-4.808 1.366-1.155 3.02-1.922 4.96-2.301 1.915-.375 3.734-.22 5.458.468 1.724.686 3.321 1.909 4.794 3.669 1.471 1.76 2.788 4.068 3.951 6.926 1.162 2.857 2.131 6.283 2.905 10.278.77 3.97 1.146 7.449 1.128 10.438-.017 2.987-.38 5.506-1.089 7.555-.709 2.05-1.745 3.663-3.107 4.842-1.362 1.178-3.013 1.957-4.952 2.337zm-10.413-51.424c-4.176.767-7.677 2.102-10.501 4.003-2.825 1.902-5.01 4.253-6.555 7.053s-2.483 6.012-2.811 9.635c-.329 3.624-.084 7.553.737 11.789.844 4.354 2.219 8.182 4.126 11.481 1.907 3.297 4.223 5.985 6.949 8.062 2.726 2.076 5.789 3.487 9.19 4.233 3.4.745 7.015.743 10.847-.007 4.214-.825 7.723-2.179 10.526-4.064 2.804-1.885 4.96-4.224 6.469-7.017s2.407-5.985 2.693-9.575c.285-3.59.018-7.502-.802-11.738-.705-3.634-1.779-6.901-3.224-9.803-1.444-2.901-3.188-5.389-5.23-7.462s-4.34-3.702-6.893-4.889c-2.554-1.186-5.294-1.893-8.22-2.118.375-1.397 1.037-2.595 1.987-3.593.95-.997 2.067-1.84 3.35-2.528 1.283-.689 2.66-1.245 4.131-1.671 1.471-.425 2.925-.778 4.361-1.059l.468-.092c.238-.047.584-.096 1.033-.146.45-.051.916-.086 1.397-.105s.933-.02 1.36-.004c.425.017.733.069.924.156l-1.769-9.132c-.176-.14-.509-.256-1-.348-.49-.092-1.06-.148-1.71-.17-.651-.023-1.363-.014-2.139.025-.775.039-1.534.133-2.276.277l-.144.028c-2.778.544-5.207 1.407-7.289 2.588-2.082 1.182-3.786 2.589-5.11 4.221-1.323 1.634-2.258 3.447-2.804 5.439-.546 1.993-.669 4.084-.368 6.272-.293.033-.578.07-.855.112-.278.042-.561.091-.848.147z"
            fill="none" stroke="#fff" stroke-miterlimit="10" stroke-width=".984"
            transform="translate(44.3394 154.4048)" />
        <path
            d="m0 0c-7.479-1.546-13.454-.829-17.924 2.151-4.472 2.981-7.517 8.433-9.139 16.358l-5.383 26.294-5.254.114-.988 4.827 22.975 4.75.988-4.827-5.901-2.383 5.648-27.591c.575-2.809 1.342-5.216 2.3-7.22.959-2.005 2.064-3.604 3.317-4.796 1.253-1.194 2.65-1.993 4.19-2.401 1.54-.408 3.171-.433 4.891-.077 2.198.454 3.99 1.281 5.376 2.482 1.384 1.199 2.425 2.66 3.119 4.38.693 1.72 1.068 3.657 1.127 5.809.057 2.151-.154 4.403-.636 6.757l-5.641 27.555-6.285-.136-.988 4.827 18.277 3.779.989-4.827-4.688-2.096 5.589-27.302c.796-3.89.961-7.342.494-10.354-.468-3.012-1.43-5.607-2.889-7.787-1.459-2.179-3.356-3.954-5.69-5.325-2.335-1.371-4.96-2.358-7.874-2.961"
            fill="#bf1e2d" transform="translate(91.5801 72.1113)" />
        <path
            d="m0 0c-7.479-1.546-13.454-.829-17.924 2.151-4.472 2.981-7.517 8.433-9.139 16.358l-5.383 26.294-5.254.114-.988 4.827 22.975 4.75.988-4.827-5.901-2.383 5.648-27.591c.575-2.809 1.342-5.216 2.3-7.22.959-2.005 2.064-3.604 3.317-4.796 1.253-1.194 2.65-1.993 4.19-2.401 1.54-.408 3.171-.433 4.891-.077 2.198.454 3.99 1.281 5.376 2.482 1.384 1.199 2.425 2.66 3.119 4.38.693 1.72 1.068 3.657 1.127 5.809.057 2.151-.154 4.403-.636 6.757l-5.641 27.555-6.285-.136-.988 4.827 18.277 3.779.989-4.827-4.688-2.096 5.589-27.302c.796-3.89.961-7.342.494-10.354-.468-3.012-1.43-5.607-2.889-7.787-1.459-2.179-3.356-3.954-5.69-5.325-2.335-1.371-4.96-2.358-7.874-2.961z"
            fill="none" stroke="#fff" stroke-miterlimit="10" stroke-width=".984"
            transform="translate(91.5801 72.1113)" />
        <path
            d="m0 0 .668 4.993 6.519.158 5.815 43.443-6.231 1.992.653 4.884 24.189-3.27-.653-4.884-6.498-.271-5.816-43.443 6.202-1.952-.66-4.92z"
            fill="#bf1e2d" transform="translate(96.8818 56.4229)" />
        <path
            d="m0 0 .668 4.993 6.519.158 5.815 43.443-6.231 1.992.653 4.884 24.189-3.27-.653-4.884-6.498-.271-5.816-43.443 6.202-1.952-.66-4.92z"
            fill="none" stroke="#fff" stroke-miterlimit="10" stroke-width=".984"
            transform="translate(96.8818 56.4229)" />
        <path
            d="m0 0-2.524 4.376 27.92 42.032 4.207 4.891-18.407-.955-4.207-10.15-6.33.918 1.792 15.078h38.385l1.977-4.413-27.262-42.069-4.61-4.633 21.773 1.544 4.427 11.253 6.22-1.25-1.976-16.622z"
            fill="#bf1e2d" transform="translate(114.0459 27.6689)" />
        <path
            d="m0 0-2.524 4.376 27.92 42.032 4.207 4.891-18.407-.955-4.207-10.15-6.33.918 1.792 15.078h38.385l1.977-4.413-27.262-42.069-4.61-4.633 21.773 1.544 4.427 11.253 6.22-1.25-1.976-16.622z"
            fill="none" stroke="#fff" stroke-miterlimit="10" stroke-width=".984"
            transform="translate(114.0459 27.6689)" />
        <g fill="#231f20">
            <path
                d="m0 0c-.285.163-.468.38-.549.65-.082.271-.053.549.087.834.169.308.402.522.702.641s.627.112.982-.022c.203-.086.357-.191.462-.31.105-.118.171-.244.201-.375.029-.131.029-.266 0-.405-.03-.14-.079-.271-.149-.393-.133-.338-.361-.562-.68-.677-.32-.112-.672-.093-1.056.057m-.742 4.049c-.092.098-.195.253-.304.463-.111.209-.214.437-.31.684-.097.247-.178.496-.245.746-.066.25-.106.465-.117.646 0 .343.079.64.239.89s.367.47.62.663c.253.192.535.365.846.518.311.154.617.308.916.459.3.151.577.311.833.48.257.169.454.36.594.576 0 .04.001.081.004.122s.005.084.005.131c0 .43-.076.863-.227 1.3-.152.435-.377.831-.676 1.186-.3.355-.672.643-1.117.863-.445.222-.965.332-1.558.332-.279 0-.541-.015-.785-.047-.245-.033-.421-.061-.532-.083l-.375 1.508c.052.035.162.074.331.115.169.04.37.078.602.112.233.035.489.064.768.088.279.023.555.035.829.035.919 0 1.704-.132 2.356-.398.651-.264 1.182-.605 1.592-1.024s.709-.89.898-1.409c.189-.521.284-1.037.284-1.549 0-.488-.079-.914-.235-1.278-.158-.364-.358-.682-.602-.955-.245-.274-.518-.514-.821-.72-.302-.207-.599-.4-.89-.581-.29-.18-.561-.356-.811-.527s-.445-.363-.585-.572c-.017-.046-.033-.112-.048-.196-.014-.084-.021-.167-.021-.249 0-.355.021-.696.065-1.024.044-.33.097-.642.162-.938z"
                transform="translate(26.5977 37.6211)" />
            <path
                d="m0 0c-.397.228-.652.529-.766.905-.113.377-.072.765.122 1.161.235.429.561.727.978.893s.873.156 1.367-.03c.284-.121.498-.266.644-.432.146-.165.239-.34.28-.522.041-.183.041-.371 0-.565s-.109-.377-.207-.547c-.186-.47-.502-.784-.947-.942-.446-.157-.936-.131-1.471.079m-1.033 5.638c-.13.138-.271.353-.425.645-.154.291-.298.609-.432.953-.133.344-.247.691-.339 1.04-.094.348-.148.648-.165.899 0 .477.111.891.334 1.239.223.349.511.656.863.924.352.267.745.508 1.179.723.433.214.858.427 1.276.638.417.21.804.433 1.16.668.357.235.632.502.827.802 0 .057.002.114.005.17.004.057.007.118.007.182 0 .6-.106 1.203-.316 1.811-.211.607-.525 1.158-.942 1.653-.417.494-.936.895-1.555 1.202-.62.309-1.343.462-2.17.462-.389 0-.753-.022-1.093-.067-.341-.045-.587-.083-.742-.115l-.522 2.102c.073.049.227.101.462.159.235.056.514.109.838.157.325.049.681.09 1.07.122.388.032.773.049 1.154.049 1.28 0 2.373-.185 3.281-.553.907-.369 1.647-.845 2.218-1.428s.988-1.238 1.251-1.963c.264-.725.395-1.443.395-2.157 0-.68-.109-1.273-.328-1.779-.218-.508-.498-.95-.838-1.331s-.721-.716-1.143-1.003c-.421-.287-.834-.558-1.239-.809s-.782-.495-1.13-.734-.62-.505-.815-.796c-.024-.065-.046-.156-.066-.274-.021-.117-.03-.232-.03-.346 0-.494.03-.971.091-1.428.06-.458.135-.893.224-1.306z"
                transform="translate(58.5664 23.4189)" />
            <path
                d="m0 0c-.816.466-1.34 1.086-1.573 1.86-.234.775-.15 1.57.249 2.386.483.882 1.153 1.494 2.011 1.835.857.342 1.794.32 2.81-.062.582-.25 1.024-.545 1.323-.886.3-.342.492-.7.575-1.074.083-.375.083-.763 0-1.162s-.225-.774-.425-1.124c-.383-.965-1.032-1.611-1.948-1.935-.916-.325-1.923-.272-3.022.162m-2.123 11.588c-.266.283-.558.725-.874 1.324-.316.6-.612 1.253-.886 1.96-.275.708-.509 1.42-.7 2.136s-.304 1.332-.337 1.848c0 .983.229 1.831.687 2.547s1.049 1.349 1.773 1.899 1.532 1.045 2.423 1.485c.89.442 1.764.879 2.622 1.312.857.433 1.652.89 2.385 1.374.733.482 1.299 1.032 1.698 1.648 0 .116.004.233.013.35.008.116.012.241.012.374 0 1.232-.216 2.472-.649 3.721-.433 1.248-1.078 2.381-1.935 3.397-.859 1.016-1.923 1.84-3.197 2.473-1.274.632-2.76.949-4.458.949-.8 0-1.549-.046-2.248-.138s-1.207-.171-1.524-.237l-1.074 4.321c.151.1.466.208.95.324.482.116 1.057.226 1.723.324.666.101 1.399.184 2.198.25.799.067 1.589.101 2.372.101 2.631 0 4.878-.38 6.743-1.137s3.385-1.735 4.558-2.934c1.174-1.199 2.032-2.544 2.573-4.033.541-1.491.812-2.969.812-4.434 0-1.398-.225-2.618-.675-3.659-.449-1.04-1.024-1.952-1.723-2.735-.699-.782-1.482-1.469-2.347-2.06-.867-.591-1.716-1.145-2.548-1.66-.833-.517-1.607-1.021-2.323-1.512s-1.274-1.036-1.673-1.636c-.05-.133-.096-.32-.138-.562-.042-.241-.062-.479-.062-.711 0-1.016.062-1.994.187-2.935s.279-1.836.462-2.684z"
                transform="translate(40.9473 21.3721)" />
            <path
                d="m0 0c-.284.163-.468.38-.549.65-.082.27-.053.549.087.833.168.309.402.522.702.641.3.12.627.112.982-.021.204-.087.357-.191.463-.31.104-.119.17-.245.2-.376.029-.13.029-.266 0-.405-.03-.139-.078-.27-.149-.392-.133-.338-.36-.563-.68-.677-.32-.113-.672-.094-1.056.057m-.741 4.048c-.094.099-.196.253-.306.463-.11.209-.214.437-.309.685-.096.246-.178.495-.245.746-.066.25-.106.465-.118.645 0 .343.08.64.24.89.161.251.367.471.62.663.253.193.535.365.846.519s.617.307.916.458c.3.152.577.311.833.481.256.168.454.36.594.575 0 .04.001.082.004.122.003.041.005.084.005.131 0 .43-.076.864-.228 1.3-.151.436-.376.832-.675 1.187-.3.354-.672.642-1.118.863-.444.222-.964.331-1.556.331-.28 0-.541-.015-.785-.047-.246-.033-.422-.06-.533-.083l-.375 1.509c.052.035.162.073.331.114.169.04.37.079.602.113.233.035.489.064.769.087.278.024.554.035.829.035.919 0 1.703-.132 2.355-.397.651-.264 1.182-.606 1.592-1.024.41-.419.71-.89.898-1.41.19-.521.284-1.036.284-1.548 0-.489-.079-.915-.236-1.278-.156-.365-.357-.682-.601-.956-.245-.274-.518-.514-.821-.72-.302-.206-.598-.4-.889-.58s-.562-.356-.812-.528c-.25-.171-.445-.362-.585-.571-.016-.047-.033-.113-.048-.196-.014-.085-.021-.168-.021-.249 0-.356.021-.697.065-1.025.043-.329.098-.642.161-.938z"
                transform="translate(116.3047 136.7979)" />
            <path
                d="m0 0c-.396.227-.651.529-.766.905-.113.377-.072.764.122 1.161.235.429.561.727.978.892.418.167.873.157 1.367-.029.284-.121.498-.266.645-.431.145-.166.238-.341.279-.523.041-.183.041-.371 0-.565-.041-.195-.109-.377-.207-.547-.187-.47-.502-.784-.947-.942-.447-.157-.936-.131-1.471.079m-1.033 5.638c-.13.139-.272.353-.425.645-.154.291-.298.609-.432.954-.133.344-.247.69-.339 1.039-.093.348-.148.648-.165.899 0 .478.112.891.334 1.239.223.349.511.656.863.924.352.267.746.508 1.178.723.434.214.86.427 1.277.638.417.21.804.433 1.16.668s.633.502.826.802c0 .057.003.114.007.17.004.057.006.118.006.182 0 .6-.106 1.203-.316 1.811-.211.607-.525 1.158-.942 1.653-.417.494-.936.894-1.556 1.202-.619.309-1.342.462-2.169.462-.388 0-.753-.022-1.093-.066-.34-.045-.587-.084-.742-.116l-.522 2.102c.073.049.227.101.462.159.235.056.515.109.839.157.323.049.68.09 1.069.122s.774.049 1.154.049c1.281 0 2.373-.184 3.282-.553.906-.369 1.646-.845 2.216-1.428.572-.583.989-1.238 1.252-1.963.264-.725.395-1.444.395-2.157 0-.68-.109-1.273-.327-1.78-.219-.507-.499-.949-.839-1.33-.341-.382-.721-.716-1.143-1.003-.421-.288-.834-.557-1.239-.808s-.782-.496-1.13-.736c-.348-.238-.62-.504-.814-.795-.025-.065-.047-.156-.067-.273-.02-.118-.03-.233-.03-.347 0-.494.03-.97.091-1.427.06-.459.136-.894.224-1.307z"
                transform="translate(148.2734 122.5952)" />
            <path
                d="m0 0c-.815.466-1.34 1.086-1.573 1.861-.234.774-.15 1.569.25 2.386.482.882 1.152 1.493 2.01 1.835.858.341 1.794.32 2.81-.063.582-.249 1.024-.545 1.323-.886.3-.341.492-.7.575-1.074.083-.375.083-.762 0-1.162-.083-.398-.225-.773-.425-1.123-.383-.966-1.032-1.611-1.948-1.936-.916-.324-1.922-.271-3.022.162m-2.123 11.589c-.266.283-.558.724-.874 1.323-.316.6-.611 1.254-.887 1.961-.274.708-.508 1.419-.699 2.135-.191.717-.304 1.332-.337 1.848 0 .983.229 1.832.687 2.548s1.049 1.349 1.773 1.898c.725.55 1.532 1.045 2.423 1.486s1.765.879 2.622 1.312c.857.432 1.652.89 2.385 1.373s1.299 1.032 1.699 1.649c0 .115.004.232.012.349.008.116.012.241.012.374 0 1.233-.215 2.473-.649 3.722-.433 1.248-1.078 2.38-1.936 3.396-.857 1.016-1.922 1.84-3.196 2.473-1.274.633-2.76.949-4.458.949-.8 0-1.549-.046-2.248-.137-.699-.092-1.207-.171-1.523-.238l-1.075 4.322c.151.099.466.207.95.324.482.116 1.057.225 1.723.324.666.101 1.399.184 2.198.25.798.066 1.589.1 2.373.1 2.63 0 4.877-.379 6.743-1.136 1.864-.758 3.384-1.736 4.557-2.935 1.174-1.198 2.032-2.544 2.573-4.033.541-1.49.811-2.969.811-4.433 0-1.399-.224-2.619-.674-3.659-.449-1.041-1.023-1.953-1.723-2.735-.7-.783-1.482-1.47-2.347-2.061-.866-.591-1.716-1.144-2.548-1.66-.833-.517-1.607-1.021-2.322-1.511-.717-.491-1.275-1.037-1.674-1.636-.05-.133-.096-.321-.138-.562-.042-.242-.062-.479-.062-.712 0-1.016.062-1.993.187-2.934.125-.942.279-1.836.462-2.685z"
                transform="translate(130.6543 120.5479)" />
        </g>
    </g>
</svg>